<?xml version="1.0" encoding="UTF-8" standalone="no"?>
<svg
   xmlns:dc="http://purl.org/dc/elements/1.1/"
   xmlns:cc="http://creativecommons.org/ns#"
   xmlns:rdf="http://www.w3.org/1999/02/22-rdf-syntax-ns#"
   xmlns:svg="http://www.w3.org/2000/svg"
   xmlns="http://www.w3.org/2000/svg"
   xmlns:sodipodi="http://sodipodi.sourceforge.net/DTD/sodipodi-0.dtd"
   xmlns:inkscape="http://www.inkscape.org/namespaces/inkscape"
   enable-background="new 0 0 512 512"
   id="Layer_1"
   version="1.1"
   viewBox="0 0 512 512"
   xml:space="preserve"
   sodipodi:docname="add-cards.svg"
   inkscape:version="0.92.3 (3ce5693, 2018-03-11)"><metadata
     id="metadata3929"><rdf:RDF><cc:Work
         rdf:about=""><dc:format>image/svg+xml</dc:format><dc:type
           rdf:resource="http://purl.org/dc/dcmitype/StillImage" /><dc:title></dc:title></cc:Work></rdf:RDF></metadata><defs
     id="defs3927" /><sodipodi:namedview
     pagecolor="#ffffff"
     bordercolor="#666666"
     borderopacity="1"
     objecttolerance="10"
     gridtolerance="10"
     guidetolerance="10"
     inkscape:pageopacity="0"
     inkscape:pageshadow="2"
     inkscape:window-width="1920"
     inkscape:window-height="993"
     id="namedview3925"
     showgrid="false"
     inkscape:zoom="2.6074563"
     inkscape:cx="257.75144"
     inkscape:cy="176.6615"
     inkscape:window-x="0"
     inkscape:window-y="24"
     inkscape:window-maximized="1"
     inkscape:current-layer="Layer_1" /><g
     id="Layer_1_1_"
     style="fill:#ffffff"><path
       d="M494,256c0,131.4-106.6,238-238,238S18,387.4,18,256S124.6,18,256,18S494,124.6,494,256z"
       id="path3914"
       style="fill:#ffffff"
       fill="#4DB6AC" /></g><g
     id="Layer_2"
     style="fill:#ffff00"><g
       id="g3921"
       style="fill:#000000"><line
         stroke-miterlimit="10"
         x1="256"
         x2="256"
         y1="146"
         y2="374"
         id="line3917"
         style="fill:#000000"
         stroke-linecap="round"
         stroke-width="16"
         stroke="#FFFFFF"
         fill="none" /><line
         stroke-miterlimit="10"
         x1="150.5"
         x2="361.5"
         y1="260"
         y2="260"
         id="line3919"
         style="fill:#000000"
         stroke-linecap="round"
         stroke-width="16"
         stroke="#FFFFFF"
         fill="none" /></g><path
       style="fill:#000000;stroke-width:0.38351554"
       d="m 252.9575,381.07212 c -1.87983,-0.87033 -3.4085,-2.45137 -4.19833,-4.34217 -0.52885,-1.26604 -0.59562,-7.44549 -0.59562,-55.13036 V 267.8951 l -49.18586,-0.002 c -33.1387,-10e-4 -49.65851,-0.13339 -50.63454,-0.40444 -1.88525,-0.52354 -4.05275,-2.45059 -4.93112,-4.38408 -1.77895,-3.91588 0.19391,-8.60009 4.35401,-10.33786 1.26408,-0.52804 7.0408,-0.59562 50.91169,-0.59562 h 49.48582 V 198.36233 144.5537 l 1.00593,-2.01864 c 1.48555,-2.98111 3.32909,-4.07646 6.86093,-4.07646 2.37368,0 2.95249,0.14352 4.27489,1.05994 0.84123,0.58297 1.94825,1.79104 2.46006,2.68461 l 0.93057,1.62467 0.10107,54.17157 0.10107,54.17157 49.56419,0.008 c 47.42554,0.008 49.63039,0.0391 51.09826,0.71867 5.16887,2.39311 6.32747,8.57874 2.35156,12.55465 -0.93096,0.93096 -2.22073,1.76298 -3.11986,2.01259 -1.08589,0.30146 -15.87345,0.42615 -50.71866,0.42766 l -49.18587,0.002 -0.002,53.40454 c -0.002,36.08246 -0.13262,53.87442 -0.40444,54.8532 -1.20582,4.34213 -6.46265,6.79945 -10.52361,4.91928 z"
       id="path4738"
       inkscape:connector-curvature="0" /></g></svg>