<?xml version="1.0" encoding="UTF-8" standalone="no"?>
<svg
   xmlns:dc="http://purl.org/dc/elements/1.1/"
   xmlns:cc="http://creativecommons.org/ns#"
   xmlns:rdf="http://www.w3.org/1999/02/22-rdf-syntax-ns#"
   xmlns:svg="http://www.w3.org/2000/svg"
   xmlns="http://www.w3.org/2000/svg"
   xmlns:sodipodi="http://sodipodi.sourceforge.net/DTD/sodipodi-0.dtd"
   xmlns:inkscape="http://www.inkscape.org/namespaces/inkscape"
   id="Layer_1"
   style="enable-background:new 0 0 64 64;"
   version="1.1"
   viewBox="0 0 64 64"
   xml:space="preserve"
   sodipodi:docname="icon-profile.svg"
   inkscape:version="0.92.3 (3ce5693, 2018-03-11)"><metadata
     id="metadata5356"><rdf:RDF><cc:Work
         rdf:about=""><dc:format>image/svg+xml</dc:format><dc:type
           rdf:resource="http://purl.org/dc/dcmitype/StillImage" /><dc:title></dc:title></cc:Work></rdf:RDF></metadata><defs
     id="defs5354" /><sodipodi:namedview
     pagecolor="#ffffff"
     bordercolor="#666666"
     borderopacity="1"
     objecttolerance="10"
     gridtolerance="10"
     guidetolerance="10"
     inkscape:pageopacity="0"
     inkscape:pageshadow="2"
     inkscape:window-width="1920"
     inkscape:window-height="993"
     id="namedview5352"
     showgrid="false"
     inkscape:zoom="3.6875"
     inkscape:cx="32"
     inkscape:cy="32"
     inkscape:window-x="0"
     inkscape:window-y="24"
     inkscape:window-maximized="1"
     inkscape:current-layer="Layer_1" /><style
     type="text/css"
     id="style5344">
	.st0{fill:#134563;}
</style><g
     id="g5349"
     style="fill:#ffffff"
     transform="matrix(1.3120346,0,0,1.3120346,-10.120701,-9.8495142)"><g
       id="Icon-User"
       transform="translate(278,278)"
       style="fill:#ffffff"><path
         class="st0"
         d="m -246,-222.1 c -13.2,0 -23.9,-10.7 -23.9,-23.9 0,-13.2 10.7,-23.9 23.9,-23.9 13.2,0 23.9,10.7 23.9,23.9 0,13.2 -10.7,23.9 -23.9,23.9 z m 0,-45.2 c -11.7,0 -21.3,9.6 -21.3,21.3 0,11.7 9.6,21.3 21.3,21.3 11.7,0 21.3,-9.6 21.3,-21.3 0,-11.7 -9.6,-21.3 -21.3,-21.3 z"
         id="Fill-57"
         style="fill:#ffffff"
         inkscape:connector-curvature="0" /><path
         class="st0"
         d="m -260,-228.7 -2.4,-1.1 c 0.7,-1.7 2.9,-2.6 5.4,-3.7 2.4,-1.1 5.4,-2.4 5.4,-4 v -2.2 c -0.9,-0.7 -2.3,-2.3 -2.5,-4.6 -0.7,-0.7 -1.8,-2 -1.8,-3.6 0,-1 0.4,-1.8 0.7,-2.3 -0.2,-1.1 -0.6,-3.3 -0.6,-5 0,-5.5 3.8,-9.1 9.8,-9.1 1.7,0 3.8,0.5 4.9,1.7 2.7,0.5 4.9,3.7 4.9,7.4 0,2.4 -0.4,4.4 -0.7,5.3 0.3,0.5 0.6,1.2 0.6,2 0,1.9 -0.9,3.1 -1.8,3.7 -0.2,2.3 -1.5,3.8 -2.3,4.5 v 2.2 c 0,1.4 2.5,2.3 4.8,3.2 2.7,1 5.5,2 6.4,4.3 l -2.5,0.9 c -0.4,-1.2 -2.8,-2 -4.8,-2.8 -3.1,-1.1 -6.6,-2.4 -6.6,-5.6 v -3.6 l 0.6,-0.4 c 0.1,0 1.8,-1.2 1.8,-3.5 v -0.9 l 0.8,-0.3 c 0.1,-0.1 0.9,-0.5 0.9,-1.7 0,-0.4 -0.3,-0.8 -0.4,-0.9 l -0.5,-0.6 0.2,-0.7 c 0,0 0.7,-2.2 0.7,-5.2 0,-2.5 -1.4,-4.8 -2.9,-4.8 h -0.8 l -0.4,-0.7 c -0.3,-0.5 -1.5,-1 -3.1,-1 -4.5,0 -7.2,2.4 -7.2,6.5 0,1.9 0.7,5 0.7,5 l 0.2,0.7 -0.5,0.5 c 0,0 -0.4,0.5 -0.4,1 0,0.7 0.9,1.6 1.3,2 l 0.5,0.4 v 0.7 c 0,2.2 1.9,3.4 1.9,3.4 l 0.6,0.4 v 3.6 c 0,3.3 -3.7,5 -7,6.4 -1.4,0.8 -3.5,1.8 -3.9,2.5"
         id="Fill-58"
         style="fill:#ffffff"
         inkscape:connector-curvature="0" /></g></g></svg>