<?xml version="1.0" encoding="UTF-8" standalone="no"?>
<!-- Created with Inkscape (http://www.inkscape.org/) -->

<svg
   xmlns:dc="http://purl.org/dc/elements/1.1/"
   xmlns:cc="http://creativecommons.org/ns#"
   xmlns:rdf="http://www.w3.org/1999/02/22-rdf-syntax-ns#"
   xmlns:svg="http://www.w3.org/2000/svg"
   xmlns="http://www.w3.org/2000/svg"
   xmlns:sodipodi="http://sodipodi.sourceforge.net/DTD/sodipodi-0.dtd"
   xmlns:inkscape="http://www.inkscape.org/namespaces/inkscape"
   version="1.1"
   width="300"
   height="300"
   id="svg2"
   inkscape:version="0.91 r13725"
   sodipodi:docname="logo2.svg">
  <sodipodi:namedview
     pagecolor="#ffffff"
     bordercolor="#FFF"
     borderopacity="1"
     objecttolerance="10"
     gridtolerance="10"
     guidetolerance="10"
     inkscape:pageopacity="0"
     inkscape:pageshadow="2"
     inkscape:window-width="1585"
     inkscape:window-height="926"
     id="namedview23"
     showgrid="false"
     inkscape:zoom="0.78666667"
     inkscape:cx="150"
     inkscape:cy="150"
     inkscape:window-x="10"
     inkscape:window-y="34"
     inkscape:window-maximized="0"
     inkscape:current-layer="g3026" />
  <metadata
     id="metadata8">
    <rdf:RDF>
      <cc:Work
         rdf:about="">
        <dc:format>image/svg+xml</dc:format>
        <dc:type
           rdf:resource="http://purl.org/dc/dcmitype/StillImage" />
        <dc:title></dc:title>
      </cc:Work>
    </rdf:RDF>
  </metadata>
  <defs
     id="defs6" />
  <g
     id="g3026">
    <g
       transform="translate(0.41861772,0.26971907)"
       id="Layer_1"
       style="fill:#ffffff">
      <g
         id="g7"
         style="fill:#ffffff">
        <g
           id="surface0"
           style="fill:#ffffff">
          <path
             d="m 138.709,30.938 c 5.609,-0.752 11.406,1.083 15.914,4.42 5.193,3.894 7.9,10.298 8.531,16.621 -0.295,8.417 -5.155,16.962 -13.223,20.111 -7.173,3.311 -15.957,1.923 -22.096,-2.922 -5.224,-4.494 -8.544,-11.351 -8.015,-18.312 0.739,-9.984 8.911,-18.711 18.889,-19.918 z"
             id="path10"
             style="fill:#ffffff;stroke:#FFF;stroke-width:0.1;stroke-miterlimit:10" />
          <path
             d="m 138.709,30.938 c 5.609,-0.752 11.406,1.083 15.914,4.42 5.193,3.894 7.9,10.298 8.531,16.621 -0.295,8.417 -5.155,16.962 -13.223,20.111 -7.173,3.311 -15.957,1.923 -22.096,-2.922 -5.224,-4.494 -8.544,-11.351 -8.015,-18.312 0.739,-9.984 8.911,-18.711 18.889,-19.918 z"
             id="path12"
             style="fill:#ffffff" />
          <path
             d="m 80.708,66.875 c 7.386,-2.163 15.97,-1.732 22.092,3.353 1.917,2.876 3.946,6.594 2.431,10.088 -1.416,3.29 -4.979,4.698 -8.044,6.012 -7.894,2.683 -16.457,3.841 -23.707,8.161 -5.154,3.081 -6.941,9.597 -5.855,15.241 0.5,6.843 5.978,11.954 11.813,14.8 4.678,2.798 10.345,2.349 15.574,2.216 4.266,-0.208 8.066,-2.58 12.318,-2.738 -0.103,2.978 -2.86,4.734 -5.127,6.142 -7.209,3.908 -15.691,4.301 -23.712,3.991 -4.148,-0.199 -8.006,-1.968 -11.519,-4.065 -5.816,-3.631 -12.024,-7.484 -15.131,-13.878 -5.994,-12.084 -2.534,-27.284 6.337,-37.039 5.839,-6.605 14.366,-9.672 22.53,-12.284 z"
             id="path14"
             style="fill:#ffffff;stroke:#FFF;stroke-width:0.1;stroke-miterlimit:10" />
          <path
             d="m 80.708,66.875 c 7.386,-2.163 15.97,-1.732 22.092,3.353 1.917,2.876 3.946,6.594 2.431,10.088 -1.416,3.29 -4.979,4.698 -8.044,6.012 -7.894,2.683 -16.457,3.841 -23.707,8.161 -5.154,3.081 -6.941,9.597 -5.855,15.241 0.5,6.843 5.978,11.954 11.813,14.8 4.678,2.798 10.345,2.349 15.574,2.216 4.266,-0.208 8.066,-2.58 12.318,-2.738 -0.103,2.978 -2.86,4.734 -5.127,6.142 -7.209,3.908 -15.691,4.301 -23.712,3.991 -4.148,-0.199 -8.006,-1.968 -11.519,-4.065 -5.816,-3.631 -12.024,-7.484 -15.131,-13.878 -5.994,-12.084 -2.534,-27.284 6.337,-37.039 5.839,-6.605 14.366,-9.672 22.53,-12.284 z"
             id="path16"
             style="fill:#ffffff" />
          <path
             d="m 157.501,76.707 c 1.079,-0.584 2.237,-0.912 3.475,-0.984 21.44,-0.625 42.759,2.389 63.873,5.841 15.21,2.599 30.544,4.428 45.769,6.903 0.748,1.864 -2.445,1.671 -3.57,2.198 -24.506,3.485 -49.292,4.094 -73.98,5.48 -8.992,0.102 -17.988,0.678 -26.979,0.191 -4.705,-0.327 -9.841,-1.833 -12.842,-5.695 -3.376,-4.686 -0.573,-11.488 4.254,-13.934 z"
             id="path18"
             style="fill:#ffffff;stroke:#FFF;stroke-width:0.1;stroke-miterlimit:10" />
          <path
             d="m 157.501,76.707 c 1.079,-0.584 2.237,-0.912 3.475,-0.984 21.44,-0.625 42.759,2.389 63.873,5.841 15.21,2.599 30.544,4.428 45.769,6.903 0.748,1.864 -2.445,1.671 -3.57,2.198 -24.506,3.485 -49.292,4.094 -73.98,5.48 -8.992,0.102 -17.988,0.678 -26.979,0.191 -4.705,-0.327 -9.841,-1.833 -12.842,-5.695 -3.376,-4.686 -0.573,-11.488 4.254,-13.934 z"
             id="path20"
             style="fill:#ffffff" />
          <g
             id="g22"
             style="fill:#ffffff">
            <path
               d="m 99.674,90.979 c 3.651,0 7.299,0.609 10.709,1.822 4.505,1.858 8.272,5.036 12.029,8.062 -1.307,9.05 -8.023,17.218 -16.883,19.755 -3.133,1.32 -6.466,1.625 -9.815,1.625 -1.865,0 -3.734,-0.094 -5.577,-0.16 -6.755,-1.242 -12.693,-5.212 -17.796,-9.649 1.625,-4.728 3.091,-9.78 6.623,-13.492 5.494,-5.322 13.108,-7.962 20.71,-7.963 m 10e-4,5 c -10e-4,0 -10e-4,0 0,0 -6.613,0 -12.859,2.361 -17.157,6.48 -2.001,2.14 -3.208,5.098 -4.33,8.316 4.44,3.448 8.56,5.527 12.518,6.326 l 0.885,0.033 c 1.429,0.056 2.779,0.108 4.123,0.108 3.424,0 5.852,-0.38 7.874,-1.232 l 0.277,-0.117 0.289,-0.083 c 5.941,-1.702 10.877,-6.851 12.719,-12.991 -2.721,-2.169 -5.377,-4.131 -8.282,-5.35 -2.826,-0.988 -5.825,-1.49 -8.916,-1.49 l 0,0 z"
               id="path24"
               style="fill:#ffffff" />
          </g>
          <path
             d="m 92.555,145.724 c 8.434,-4.452 18.034,0.25 25.649,4.312 4.229,-2.854 9.524,-4.887 14.655,-3.598 4.44,1.239 7.31,5.328 8.821,9.456 0.998,3.519 -1.058,6.729 -2.616,9.704 6.281,6.408 12.217,13.459 15.594,21.873 3.68,9.916 -0.072,21.463 -7.806,28.381 -6.924,6.119 -13.784,12.48 -21.829,17.122 -8.743,4.793 -18.221,8.864 -28.132,10.144 4.46,-4.734 10.246,-7.979 14.874,-12.548 6.003,-5.296 11.119,-11.508 15.767,-18.004 3.385,-4.89 6.505,-10.239 7.045,-16.293 -2.169,-4.983 -6.929,-7.782 -10.875,-11.178 -5.996,7.16 -11.934,14.403 -18.748,20.815 -11.779,10.943 -24.62,20.648 -36.96,30.937 -13.131,10.562 -26.014,21.44 -39.269,31.843 -0.993,-1.783 0.792,-2.996 1.64,-4.264 23.061,-27.893 44.325,-57.189 66.219,-85.992 1.433,-1.931 2.662,-4 3.898,-6.059 -5.839,-3.695 -12.259,-8.715 -12.688,-16.207 0.139,-3.822 0.622,-8.869 4.761,-10.444 z"
             id="path26"
             style="fill:#ffffff;stroke:#FFF;stroke-width:0.1;stroke-miterlimit:10" />
          <path
             d="m 92.555,145.724 c 8.434,-4.452 18.034,0.25 25.649,4.312 4.229,-2.854 9.524,-4.887 14.655,-3.598 4.44,1.239 7.31,5.328 8.821,9.456 0.998,3.519 -1.058,6.729 -2.616,9.704 6.281,6.408 12.217,13.459 15.594,21.873 3.68,9.916 -0.072,21.463 -7.806,28.381 -6.924,6.119 -13.784,12.48 -21.829,17.122 -8.743,4.793 -18.221,8.864 -28.132,10.144 4.46,-4.734 10.246,-7.979 14.874,-12.548 6.003,-5.296 11.119,-11.508 15.767,-18.004 3.385,-4.89 6.505,-10.239 7.045,-16.293 -2.169,-4.983 -6.929,-7.782 -10.875,-11.178 -5.996,7.16 -11.934,14.403 -18.748,20.815 -11.779,10.943 -24.62,20.648 -36.96,30.937 -13.131,10.562 -26.014,21.44 -39.269,31.843 -0.993,-1.783 0.792,-2.996 1.64,-4.264 23.061,-27.893 44.325,-57.189 66.219,-85.992 1.433,-1.931 2.662,-4 3.898,-6.059 -5.839,-3.695 -12.259,-8.715 -12.688,-16.207 0.139,-3.822 0.622,-8.869 4.761,-10.444 z"
             id="path28"
             style="fill:#ffffff" />
        </g>
      </g>
    </g>
    <path
       d="m 117.22378,81.233569 15.32985,19.611161 12.56772,-11.186651 c 4.84782,-2.26224 8.465,3.66929 4.55752,6.90534 L 130.89635,113.82677 110.45654,87.172159 c -2.26632,-6.52959 3.01232,-8.72513 6.76724,-5.93859 z"
       id="path3354"
       style="fill:#ffffff;stroke:#FFF;stroke-width:1px;stroke-linecap:butt;stroke-linejoin:miter;stroke-opacity:1" />
    <rect
       width="300"
       height="300"
       x="0"
       y="0"
       id="rect3024"
       style="opacity:0;fill:#FFF;fill-opacity:1;stroke:none" />
  </g>
</svg>
