<?xml version="1.0" standalone="no"?>
<!DOCTYPE svg PUBLIC "-//W3C//DTD SVG 20010904//EN"
 "http://www.w3.org/TR/2001/REC-SVG-20010904/DTD/svg10.dtd">
<svg version="1.0" xmlns="http://www.w3.org/2000/svg"
 width="700.000000pt" height="700.000000pt" viewBox="0 0 700.000000 700.000000"
 preserveAspectRatio="xMidYMid meet">
<metadata>
Created by potrace 1.11, written by Peter Selinger 2001-2013
</metadata>
<g transform="translate(0.000000,700.000000) scale(0.100000,-0.100000)"
fill="#000000" stroke="none">
<path d="M2653 6923 c-56 -11 -79 -58 -170 -338 l-48 -150 -65 1 c-36 0 -90 4
-120 7 -90 12 -123 16 -160 22 -19 2 -56 7 -82 10 -26 3 -62 7 -80 10 -152 21
-205 27 -286 31 -100 4 -132 -5 -157 -42 -16 -25 -32 -87 -40 -161 -3 -26 -8
-59 -10 -73 -3 -14 -8 -50 -11 -80 -3 -30 -10 -59 -15 -64 -5 -6 -157 -10
-367 -10 l-359 -1 -46 -49 -47 -49 0 -2911 0 -2912 48 -47 48 -47 1978 0
c1282 0 1984 3 1996 10 10 5 27 24 38 42 34 55 147 403 404 1238 32 107 77
251 98 320 36 115 228 745 270 885 23 77 136 448 395 1300 113 374 220 725
237 780 16 55 42 141 58 190 15 50 39 128 53 175 15 47 54 175 87 285 34 110
63 207 65 215 2 8 11 38 19 65 9 28 18 75 22 105 5 47 2 60 -18 90 -20 29 -38
40 -113 65 -50 17 -92 31 -95 31 -9 2 -182 54 -260 78 -41 13 -127 40 -190 59
-63 20 -396 122 -740 227 -344 105 -670 205 -725 221 -55 17 -149 46 -210 64
-221 68 -1211 367 -1240 375 -16 5 -52 15 -80 24 -27 9 -52 15 -55 15 -3 -1
-15 -4 -27 -6z m627 -448 c228 -69 467 -143 530 -163 63 -20 120 -37 125 -38
6 -1 62 -19 125 -40 63 -21 124 -39 134 -41 11 -2 22 -6 25 -9 5 -6 -105 3
-149 11 -8 1 -40 6 -70 9 -30 4 -116 16 -190 26 -74 11 -173 24 -220 30 -91
12 -113 15 -175 25 -22 3 -53 8 -70 10 -67 9 -392 56 -420 61 -16 3 -41 7 -55
9 -14 2 -43 6 -65 10 -22 4 -48 9 -58 11 -34 6 -35 15 -11 105 41 147 36 140
86 124 24 -7 230 -70 458 -140z m-1481 -240 c38 -5 197 -28 271 -40 14 -2 61
-9 105 -15 128 -18 138 -19 175 -24 19 -3 87 -13 150 -22 186 -25 190 -26 190
-35 0 -7 -189 -9 -850 -11 -169 0 -159 -1 -156 20 2 9 7 42 11 72 9 68 10 70
38 64 12 -2 42 -6 66 -9z m2991 -415 c52 -6 106 -13 120 -15 14 -2 45 -7 70
-10 67 -9 164 -26 171 -31 3 -2 2 -27 -2 -56 -5 -29 -11 -75 -14 -103 -4 -27
-8 -61 -10 -75 -2 -14 -9 -63 -15 -110 -6 -47 -12 -98 -15 -115 -2 -16 -11
-86 -20 -155 -9 -69 -18 -132 -20 -140 -2 -8 -7 -44 -10 -80 -3 -36 -8 -72
-10 -80 -2 -8 -7 -40 -10 -70 -3 -30 -8 -68 -10 -85 -2 -16 -9 -64 -14 -105
-6 -41 -13 -95 -17 -120 -3 -25 -8 -58 -9 -75 -2 -16 -6 -43 -9 -60 -3 -16 -8
-55 -11 -85 -3 -30 -7 -66 -10 -80 -4 -23 -8 -55 -20 -150 -8 -64 -36 -269
-39 -287 -2 -10 -7 -45 -11 -78 -4 -33 -9 -69 -10 -80 -2 -11 -6 -42 -9 -70
-4 -27 -9 -61 -11 -75 -2 -14 -7 -43 -9 -65 -3 -22 -8 -56 -10 -75 -3 -19 -13
-89 -21 -155 -9 -66 -18 -131 -20 -145 -2 -14 -7 -49 -10 -79 -4 -30 -8 -62
-10 -71 -2 -9 -6 -41 -10 -71 -3 -30 -8 -65 -10 -79 -2 -14 -7 -45 -10 -70 -4
-25 -8 -56 -10 -70 -2 -14 -7 -49 -10 -79 -4 -30 -8 -61 -10 -70 -1 -9 -6 -41
-10 -71 -3 -30 -8 -66 -10 -80 -2 -14 -9 -63 -15 -110 -6 -47 -13 -96 -15
-110 -2 -14 -7 -52 -12 -85 -7 -55 -8 -48 -13 75 -7 194 -5 3761 2 3785 4 11
7 23 7 27 1 3 13 5 29 3 15 -2 70 -9 122 -15z m-439 -17 c3 -84 0 -5455 -3
-5458 -4 -4 -995 -6 -2925 -5 l-552 0 0 2740 0 2740 1740 0 c1649 0 1739 -1
1740 -17z m1302 -54 c313 -91 448 -140 443 -158 -3 -9 -14 -50 -24 -91 -51
-195 -562 -1898 -853 -2840 -23 -74 -47 -155 -54 -180 -7 -25 -34 -112 -60
-195 -26 -82 -58 -185 -71 -227 -13 -43 -35 -113 -48 -155 -13 -43 -41 -132
-61 -198 -20 -66 -41 -124 -47 -130 -7 -7 -9 -7 -5 0 6 11 12 52 22 145 3 30
8 62 10 70 2 8 6 42 10 75 3 33 15 125 25 205 11 80 23 167 26 195 3 27 7 63
10 80 2 16 8 68 14 115 6 47 15 112 20 145 9 61 16 111 25 188 3 23 7 58 10
77 3 19 7 55 10 80 4 25 8 56 10 70 2 14 6 43 9 65 5 35 18 140 32 240 2 17 6
51 9 76 3 25 7 55 9 66 3 11 10 65 16 119 7 55 14 108 15 119 2 11 6 43 10 70
3 28 8 61 10 75 2 14 7 45 10 70 4 25 8 56 10 70 6 38 14 100 20 150 3 25 7
59 10 75 6 39 15 100 21 150 2 22 6 51 9 65 5 36 14 99 20 145 2 22 10 74 15
115 6 41 13 95 16 120 2 25 7 57 10 72 6 29 11 65 19 143 3 28 10 77 15 110 8
50 27 193 45 330 3 29 11 84 21 155 2 19 7 51 9 70 7 48 16 93 22 103 8 13 30
8 206 -44z"/>
<path d="M3025 5427 c-115 -39 -208 -119 -255 -220 -54 -116 -55 -227 -3 -340
75 -159 219 -245 394 -235 187 11 334 143 374 336 16 78 7 144 -35 239 -39 86
-96 144 -186 188 -66 33 -87 38 -162 41 -55 3 -102 -1 -127 -9z"/>
<path d="M2033 4774 c-94 -20 -272 -95 -352 -148 -241 -160 -347 -484 -248
-754 43 -115 173 -235 352 -326 87 -43 146 -54 277 -50 219 7 395 75 427 164
13 38 6 38 -114 5 -100 -28 -233 -34 -320 -15 -64 14 -172 78 -218 129 -94
104 -117 255 -56 376 40 81 136 129 409 205 196 55 272 109 274 195 1 56 -37
135 -79 163 -89 62 -225 83 -352 56z"/>
<path d="M3456 4586 c-81 -30 -133 -115 -124 -200 9 -77 60 -125 173 -164 45
-16 395 -23 550 -12 134 10 223 62 232 136 10 75 -180 164 -436 204 -36 6 -77
13 -91 15 -23 3 -74 10 -160 21 -19 2 -51 6 -70 9 -19 2 -52 -2 -74 -9z"/>
<path d="M2225 4293 c-93 -19 -179 -61 -240 -116 -55 -49 -84 -97 -122 -202
l-25 -69 37 -32 c53 -44 133 -91 207 -122 56 -23 76 -26 183 -26 99 0 132 4
187 22 171 59 275 174 322 357 4 15 -3 26 -27 42 -18 13 -43 32 -55 43 -35 33
-144 88 -197 101 -76 17 -192 18 -270 2z m261 -99 c53 -14 172 -87 181 -110 7
-20 -45 -108 -91 -155 -98 -99 -309 -143 -450 -94 -42 14 -176 90 -176 100 0
1 7 22 15 46 24 68 59 113 117 151 118 79 263 101 404 62z"/>
<path d="M2300 3310 c-125 -26 -171 -84 -171 -216 0 -99 53 -182 177 -275 l54
-41 -18 -31 c-41 -74 -964 -1290 -1124 -1482 -161 -193 -231 -295 -202 -295 7
0 352 276 653 524 109 88 217 177 241 196 78 62 253 206 355 292 167 140 305
279 460 463 37 44 73 80 81 80 18 0 136 -103 169 -149 27 -37 28 -41 18 -95
-18 -96 -67 -186 -185 -342 -80 -106 -229 -256 -334 -339 -128 -99 -184 -150
-166 -150 23 0 120 23 192 45 132 41 295 118 400 188 79 53 246 192 354 292
64 60 125 167 145 256 15 63 13 176 -3 230 -36 118 -166 315 -271 410 l-30 27
25 58 c33 79 30 131 -10 197 -56 91 -123 128 -215 121 -52 -5 -129 -29 -155
-49 -29 -24 -46 -22 -120 15 -122 61 -239 86 -320 70z"/>
<path d="M1197 793 c-1 0 -15 -3 -32 -6 -75 -12 -127 -65 -118 -120 7 -46 18
-62 60 -89 l38 -23 1435 0 c1342 0 1437 1 1467 17 52 29 76 67 70 111 -6 45
-25 69 -75 93 -35 17 -123 18 -1440 18 -772 1 -1404 0 -1405 -1z"/>
</g>
</svg>
