<?xml version="1.0" encoding="UTF-8" standalone="no"?>
<!-- Svg Vector Icons : http://www.onlinewebfonts.com/icon -->

<svg
   xmlns:dc="http://purl.org/dc/elements/1.1/"
   xmlns:cc="http://creativecommons.org/ns#"
   xmlns:rdf="http://www.w3.org/1999/02/22-rdf-syntax-ns#"
   xmlns:svg="http://www.w3.org/2000/svg"
   xmlns="http://www.w3.org/2000/svg"
   xmlns:sodipodi="http://sodipodi.sourceforge.net/DTD/sodipodi-0.dtd"
   xmlns:inkscape="http://www.inkscape.org/namespaces/inkscape"
   version="1.1"
   x="0px"
   y="0px"
   viewBox="0 0 1000 1000"
   enable-background="new 0 0 1000 1000"
   xml:space="preserve"
   id="svg3789"
   sodipodi:docname="logo-white.svg"
   inkscape:version="0.92.3 (3ce5693, 2018-03-11)"><defs
   id="defs3793" /><sodipodi:namedview
   pagecolor="#ffffff"
   bordercolor="#666666"
   borderopacity="1"
   objecttolerance="10"
   gridtolerance="10"
   guidetolerance="10"
   inkscape:pageopacity="0"
   inkscape:pageshadow="2"
   inkscape:window-width="1920"
   inkscape:window-height="993"
   id="namedview3791"
   showgrid="false"
   inkscape:zoom="0.419"
   inkscape:cx="671.1107"
   inkscape:cy="352.20624"
   inkscape:window-x="0"
   inkscape:window-y="24"
   inkscape:window-maximized="1"
   inkscape:current-layer="g3787" />
<metadata
   id="metadata3773"> Svg Vector Icons : http://www.onlinewebfonts.com/icon <rdf:RDF><cc:Work
     rdf:about=""><dc:format>image/svg+xml</dc:format><dc:type
       rdf:resource="http://purl.org/dc/dcmitype/StillImage" /><dc:title></dc:title></cc:Work></rdf:RDF></metadata>
<g
   id="g3787"><g
     transform="translate(0.000000,511.000000) scale(0.100000,-0.100000)"
     id="g3785"
     style="fill:#ffffff"><path
       d="M3763.1,4988.7c-68.7-28.4-90-73.4-189.4-397.8c-45-151.5-90-286.5-101.8-296c-9.5-9.5-291.2,18.9-625.1,66.3c-776.6,108.9-736.4,123.1-795.6-324.4l-30.8-232h-518.5H981l-68.7-68.7l-68.7-68.7V-492.6v-4160.1l68.7-68.6L981-4790h2831.8h2829.4l59.2,54.5c52.1,45,229.6,606.2,1231.2,3899.6c644,2116.7,1186.2,3902,1205.2,3968.3c42.6,146.8,11.8,248.6-92.3,288.9C8953.1,3456.8,3853,5012.4,3831.7,5010C3822.3,5010,3791.5,5000.5,3763.1,4988.7z M6069.2,3930.3c-11.8-11.8-2171.2,291.2-2187.8,307.8c-9.5,9.5,7.1,90,35.5,180l52.1,161l1053.6-322C5600.4,4081.8,6071.6,3935,6069.2,3930.3z M3069.3,3944.5c1046.5-142.1,1037.1-132.6,132.6-137.3l-802.7-2.4l16.6,90c7.1,47.4,14.2,101.8,14.2,118.4c0,19,18.9,23.7,54.5,16.6C2512.9,4025,2775.7,3984.8,3069.3,3944.5z M7023.4,3402.3c187.1-26,340.9-49.7,343.3-52.1c4.7-7.1-731.6-5497.8-752.9-5606.8c-4.7-33.1-11.8,1238.3-14.2,2824.7c-2.4,2765.5,0,2881.5,40.3,2881.5C6663.5,3449.7,6836.4,3428.4,7023.4,3402.3z M6218.4-490.2v-3916.2H3732.3H1246.2v3916.2V3426h2486.1h2486.1V-490.2z M8259.4,3269.7c236.8-73.4,442.8-139.7,454.6-151.5c9.4-11.8-371.7-1307-864.2-2921.8c-485.4-1595.8-885.5-2898.1-890.3-2893.3c-9.5,7.1,793.2,6018.7,809.8,6070.8c7.1,14.2,21.3,28.4,33.2,28.4S8020.2,3343.1,8259.4,3269.7z"
       id="path3775"
       style="fill:#ffffff" /></g><g
     transform="matrix(3.0662337,0,0,3.0662337,8.2225012,33.955216)"
     id="g3395"
     style="fill:#ffffff"><g
       id="g3397"
       style="fill:#ffffff"
       transform="matrix(0.87574705,0,0,0.87574705,19.548115,34.62731)"><g
         id="g3399"
         style="fill:#ffffff"><path
           d="m 138.709,30.938 c 5.609,-0.752 11.406,1.083 15.914,4.42 5.193,3.894 7.9,10.298 8.531,16.621 -0.295,8.417 -5.155,16.962 -13.223,20.111 -7.173,3.311 -15.957,1.923 -22.096,-2.922 -5.224,-4.494 -8.544,-11.351 -8.015,-18.312 0.739,-9.984 8.911,-18.711 18.889,-19.918 z"
           id="path3401"
           style="fill:#ffffff;stroke:#ffffff;stroke-width:0.1;stroke-miterlimit:10"
           inkscape:connector-curvature="0" /><path
           d="m 138.709,30.938 c 5.609,-0.752 11.406,1.083 15.914,4.42 5.193,3.894 7.9,10.298 8.531,16.621 -0.295,8.417 -5.155,16.962 -13.223,20.111 -7.173,3.311 -15.957,1.923 -22.096,-2.922 -5.224,-4.494 -8.544,-11.351 -8.015,-18.312 0.739,-9.984 8.911,-18.711 18.889,-19.918 z"
           id="path3403"
           style="fill:#ffffff"
           inkscape:connector-curvature="0" /><path
           d="m 80.708,66.875 c 7.386,-2.163 15.97,-1.732 22.092,3.353 1.917,2.876 3.946,6.594 2.431,10.088 -1.416,3.29 -4.979,4.698 -8.044,6.012 -7.894,2.683 -16.457,3.841 -23.707,8.161 -5.154,3.081 -6.941,9.597 -5.855,15.241 0.5,6.843 5.978,11.954 11.813,14.8 4.678,2.798 10.345,2.349 15.574,2.216 4.266,-0.208 8.066,-2.58 12.318,-2.738 -0.103,2.978 -2.86,4.734 -5.127,6.142 -7.209,3.908 -15.691,4.301 -23.712,3.991 -4.148,-0.199 -8.006,-1.968 -11.519,-4.065 -5.816,-3.631 -12.024,-7.484 -15.131,-13.878 -5.994,-12.084 -2.534,-27.284 6.337,-37.039 5.839,-6.605 14.366,-9.672 22.53,-12.284 z"
           id="path3405"
           style="fill:#ffffff;stroke:#ffffff;stroke-width:0.1;stroke-miterlimit:10"
           inkscape:connector-curvature="0" /><path
           d="m 80.708,66.875 c 7.386,-2.163 15.97,-1.732 22.092,3.353 1.917,2.876 3.946,6.594 2.431,10.088 -1.416,3.29 -4.979,4.698 -8.044,6.012 -7.894,2.683 -16.457,3.841 -23.707,8.161 -5.154,3.081 -6.941,9.597 -5.855,15.241 0.5,6.843 5.978,11.954 11.813,14.8 4.678,2.798 10.345,2.349 15.574,2.216 4.266,-0.208 8.066,-2.58 12.318,-2.738 -0.103,2.978 -2.86,4.734 -5.127,6.142 -7.209,3.908 -15.691,4.301 -23.712,3.991 -4.148,-0.199 -8.006,-1.968 -11.519,-4.065 -5.816,-3.631 -12.024,-7.484 -15.131,-13.878 -5.994,-12.084 -2.534,-27.284 6.337,-37.039 5.839,-6.605 14.366,-9.672 22.53,-12.284 z"
           id="path3407"
           style="fill:#ffffff"
           inkscape:connector-curvature="0" /><path
           d="m 157.501,76.707 c 1.079,-0.584 2.237,-0.912 3.475,-0.984 12.59688,1.446156 25.01592,9.900505 32.092,20.422 -8.992,0.102 -17.988,0.678 -26.979,0.191 -4.705,-0.327 -9.841,-1.833 -12.842,-5.695 -3.376,-4.686 -0.573,-11.488 4.254,-13.934 z"
           id="path3409"
           style="fill:#ffffff;stroke:#ffffff;stroke-width:0.1;stroke-miterlimit:10"
           inkscape:connector-curvature="0"
           sodipodi:nodetypes="cccccc" /><path
           d="m 157.501,76.707 c 1.079,-0.584 2.237,-0.912 3.475,-0.984 60.02532,5.55623 40.20664,19.600635 32.092,20.422 -8.992,0.102 -17.988,0.678 -26.979,0.191 -4.705,-0.327 -9.841,-1.833 -12.842,-5.695 -3.376,-4.686 -0.573,-11.488 4.254,-13.934 z"
           id="path3411"
           style="fill:#ffffff"
           inkscape:connector-curvature="0"
           sodipodi:nodetypes="cccccc" /><g
           id="g3413"
           style="fill:#ffffff"><path
             d="m 99.674,90.979 c 3.651,0 7.299,0.609 10.709,1.822 4.505,1.858 8.272,5.036 12.029,8.062 -1.307,9.05 -8.023,17.218 -16.883,19.755 -3.133,1.32 -6.466,1.625 -9.815,1.625 -1.865,0 -3.734,-0.094 -5.577,-0.16 -6.755,-1.242 -12.693,-5.212 -17.796,-9.649 1.625,-4.728 3.091,-9.78 6.623,-13.492 5.494,-5.322 13.108,-7.962 20.71,-7.963 m 10e-4,5 c -10e-4,0 -10e-4,0 0,0 -6.613,0 -12.859,2.361 -17.157,6.48 -2.001,2.14 -3.208,5.098 -4.33,8.316 4.44,3.448 8.56,5.527 12.518,6.326 l 0.885,0.033 c 1.429,0.056 2.779,0.108 4.123,0.108 3.424,0 5.852,-0.38 7.874,-1.232 l 0.277,-0.117 0.289,-0.083 c 5.941,-1.702 10.877,-6.851 12.719,-12.991 -2.721,-2.169 -5.377,-4.131 -8.282,-5.35 -2.826,-0.988 -5.825,-1.49 -8.916,-1.49 z"
             id="path3415"
             style="fill:#ffffff"
             inkscape:connector-curvature="0" /></g><path
           d="m 92.555,145.724 c 8.434,-4.452 18.034,0.25 25.649,4.312 4.229,-2.854 9.524,-4.887 14.655,-3.598 4.44,1.239 7.31,5.328 8.821,9.456 0.998,3.519 -1.058,6.729 -2.616,9.704 6.281,6.408 12.217,13.459 15.594,21.873 3.68,9.916 -0.072,21.463 -7.806,28.381 -6.924,6.119 -13.784,12.48 -21.829,17.122 -8.743,4.793 -18.221,8.864 -28.132,10.144 4.46,-4.734 10.246,-7.979 14.874,-12.548 6.003,-5.296 11.119,-11.508 15.767,-18.004 3.385,-4.89 6.505,-10.239 7.045,-16.293 -2.169,-4.983 -6.929,-7.782 -10.875,-11.178 -5.996,7.16 -11.934,14.403 -18.748,20.815 -11.779,10.943 -24.62,20.648 -36.96,30.937 -13.131,10.562 -26.014,21.44 -39.269,31.843 -0.993,-1.783 0.792,-2.996 1.64,-4.264 23.061,-27.893 44.325,-57.189 66.219,-85.992 1.433,-1.931 2.662,-4 3.898,-6.059 -5.839,-3.695 -12.259,-8.715 -12.688,-16.207 0.139,-3.822 0.622,-8.869 4.761,-10.444 z"
           id="path3417"
           style="fill:#ffffff;stroke:#ffffff;stroke-width:0.1;stroke-miterlimit:10"
           inkscape:connector-curvature="0" /><path
           d="m 92.555,145.724 c 8.434,-4.452 18.034,0.25 25.649,4.312 4.229,-2.854 9.524,-4.887 14.655,-3.598 4.44,1.239 7.31,5.328 8.821,9.456 0.998,3.519 -1.058,6.729 -2.616,9.704 6.281,6.408 12.217,13.459 15.594,21.873 3.68,9.916 -0.072,21.463 -7.806,28.381 -6.924,6.119 -13.784,12.48 -21.829,17.122 -8.743,4.793 -18.221,8.864 -28.132,10.144 4.46,-4.734 10.246,-7.979 14.874,-12.548 6.003,-5.296 11.119,-11.508 15.767,-18.004 3.385,-4.89 6.505,-10.239 7.045,-16.293 -2.169,-4.983 -6.929,-7.782 -10.875,-11.178 -5.996,7.16 -11.934,14.403 -18.748,20.815 -11.779,10.943 -24.62,20.648 -36.96,30.937 -13.131,10.562 -26.014,21.44 -39.269,31.843 -0.993,-1.783 0.792,-2.996 1.64,-4.264 23.061,-27.893 44.325,-57.189 66.219,-85.992 1.433,-1.931 2.662,-4 3.898,-6.059 -5.839,-3.695 -12.259,-8.715 -12.688,-16.207 0.139,-3.822 0.622,-8.869 4.761,-10.444 z"
           id="path3419"
           style="fill:#ffffff"
           inkscape:connector-curvature="0" /></g></g></g><rect
     style="fill:#ffffff;stroke-width:0.959912"
     id="rect3952"
     width="439.5238"
     height="34.635445"
     x="149.16644"
     y="886.56299"
     ry="17.317722"
     rx="22.360748" /></g>
</svg>